<?xml version="1.0" encoding="UTF-8"?>
<svg width="148px" height="80px" viewBox="0 0 148 80" version="1.1" xmlns="http://www.w3.org/2000/svg" xmlns:xlink="http://www.w3.org/1999/xlink">
    <title>logo/logo_bca_white</title>
    <g id="logo/logo_bca_white" stroke="none" stroke-width="1" fill="none" fill-rule="evenodd">
        <path d="M45.8501305,27 C41.709394,27 38.0002394,27.9822838 35.5032754,29.5324584 C33.9709644,32.0586594 33,35.8109274 33,39.9999361 C33,44.1890726 33.9709644,47.9412129 35.5032754,50.4675416 C38.0002394,52.0175885 41.709394,53 45.8501305,53 C49.9908669,53 53.7000216,52.0175885 56.1969855,50.4675416 C57.7291703,47.9412129 58.7002609,44.1890726 58.7002609,39.9999361 C58.7002609,35.8109274 57.7291703,32.0586594 56.1969855,29.5324584 C53.7000216,27.9822838 49.9908669,27 45.8501305,27 M45.8501305,27.5948359 C49.6658236,27.5948359 53.2699545,28.4575907 55.7689381,29.9656236 C57.2594669,32.4936124 58.1124059,36.13976 58.1124059,39.9999361 C58.1124059,43.8601123 57.2594669,47.5063876 55.7689381,50.0343764 C53.2700808,51.5424093 49.6658236,52.4050364 45.8501305,52.4050364 C42.0344374,52.4050364 38.4301802,51.5424093 35.9313228,50.0343764 C34.440794,47.5063876 33.5878551,43.8601123 33.5878551,39.9999361 C33.5878551,36.13976 34.440794,32.4936124 35.9313228,29.9656236 C38.4301802,28.4575907 42.0344374,27.5948359 45.8501305,27.5948359 M96.3729344,28.4343361 L101.093195,31.0952627 L101.039042,31.203554 L100.945631,31.3851463 C100.947399,31.3868064 100.881028,31.5195574 100.768673,31.7442861 L100.641745,31.9981638 C100.454082,32.3735195 100.196749,32.8882291 99.9180641,33.4456447 L99.4900637,34.3017168 C99.3460858,34.5896967 99.2028101,34.8762722 99.0662766,35.1493622 L98.682943,35.9160949 L98.443791,36.3944408 C98.3965719,36.4888873 98.3536809,36.5746771 98.315873,36.6502999 C96.6212751,35.0808525 94.4191121,34.7199654 92.7468968,35.2193134 L92.5407051,35.2861871 C91.6988744,35.5302256 90.8832997,35.9586658 90.1534354,36.5529909 C88.9560136,37.5279957 88.1358946,38.8257035 87.8440499,40.2068006 C87.5557396,41.5710411 87.8191825,42.8529138 88.5860323,43.8166808 C88.8321816,44.1260389 89.1215473,44.3907013 89.446313,44.6081554 L89.6453579,44.7329427 C91.1807219,45.6988901 93.7572739,45.5254217 96.0229629,44.3696736 L96.2829321,44.2319677 L93.1620112,50.4728923 C91.9880683,50.7842298 90.8116008,50.9197216 89.6764106,50.8821772 C81.9290186,50.9015879 79.1316263,44.229286 81.2567154,38.7977367 C82.974459,33.4193773 89.1369408,28.2941951 95.7032374,29.1161524 L96.0162072,29.1598112 L96.3729344,28.4343361 Z M45.0381659,48.7236814 L45.8379619,48.7312158 C46.2437927,48.7349191 46.4003184,48.9863644 46.3966577,49.3789203 C46.3943855,49.6228312 46.3204145,50.0087466 45.7999665,50.0040216 L45.4707576,50.0010845 L45.4628051,50.8755878 L45.0187264,50.8713736 L45.0381659,48.7236814 Z M43.0307488,48.5370066 L43.4720504,48.5859164 L43.3111066,50.0700691 C43.2824523,50.3331352 43.3823005,50.4490886 43.5429918,50.4668392 C43.7358719,50.4881655 43.8377399,50.3678702 43.8633647,50.1313661 L44.0243084,48.6472134 L44.46561,48.696251 L44.3013842,50.2100305 C44.2667971,50.5292855 44.0520791,50.8464973 43.5142113,50.7867327 C43.0291078,50.7328425 42.8229735,50.4526643 42.8666493,50.0506584 L43.0307488,48.5370066 Z M49.0816671,49.0321328 C49.1130985,49.2770652 49.0162797,49.4696398 48.7833846,49.5483043 L48.7840157,49.5543063 C49.1016115,49.5573711 49.2094123,49.7503288 49.2470289,50.0422556 C49.3164557,50.582052 48.8558409,50.666463 48.6691461,50.6911095 L47.8908093,50.7935265 L47.6171418,48.6638402 L48.398508,48.5610401 C48.733776,48.5168552 49.0232224,48.5778967 49.0816671,49.0321328 Z M41.2326975,48.1608092 L42.0329983,48.3418907 C42.3285037,48.4085511 42.4755622,48.643012 42.3966682,48.9999391 C42.3375923,49.266964 42.190029,49.4438313 41.8986892,49.4267192 L41.8973006,49.4325935 C41.9894488,49.4654129 42.2653885,49.5522503 42.1820765,49.9296097 C42.1525385,50.0630583 42.073897,50.4598284 42.0948512,50.5558603 L41.6703383,50.4598284 C41.6411791,50.3192285 41.6839712,50.1795225 41.7141403,50.0431368 C41.7694292,49.793607 41.8391084,49.5869852 41.506365,49.511641 L41.3945249,49.486356 L41.2026546,50.3539634 L40.7695581,50.256016 L41.2326975,48.1608092 Z M73.5851368,29.4564485 L74.2896971,29.4572744 L74.6258203,29.4578878 L74.6258203,29.4578878 L74.9486532,29.4586467 L74.9499155,29.4724385 L76.0892712,29.4632439 C82.4832207,29.4632439 82.0912752,36.8058537 77.4366547,39.9780991 C81.3591797,42.9421955 78.8841018,49.9171082 72.0841147,50.4081318 L71.8022337,50.4246337 L71.5033629,50.425267 L71.3792139,50.4254722 L71.3792139,50.4254722 L70.8965747,50.4262209 L70.7024006,50.4265106 L70.7024006,50.4265106 L70.2702967,50.4271422 L70.0344288,50.4274816 L70.0344288,50.4274816 L69.5282157,50.4282007 L68.982906,50.4289652 C68.8892212,50.4290958 68.794251,50.4292278 68.6981673,50.4293611 L68.1096769,50.4301739 C67.810125,50.4305859 67.503644,50.4310051 67.1948732,50.4314255 L66.575653,50.4322664 C66.265891,50.4326859 65.956932,50.4331027 65.6534153,50.4335111 L65.0550129,50.4343145 C64.7608145,50.4347088 64.4751512,50.4350907 64.2026624,50.4354541 L63.6766252,50.4361548 L63.4293584,50.4364835 L63.4293584,50.4364835 L62.9714832,50.4370911 L62.7629367,50.4373674 L62.7629367,50.4373674 L62.0887466,50.4382584 L61.670854,50.4388086 L65.4506977,35.6681565 L63.8981898,35.6607498 L67.0747783,29.4632439 L67.4534999,29.4623624 L67.5634642,29.4621207 L67.5634642,29.4621207 L67.8196908,29.4615768 L67.9648335,29.4612799 L67.9648335,29.4612799 L68.2863792,29.4606493 L68.4616626,29.460321 L68.4616626,29.460321 L68.8384513,29.4596512 L69.0388372,29.4593151 L69.0388372,29.4593151 L69.4607931,29.4586537 L69.6812436,29.4583336 L69.6812436,29.4583336 L70.3737676,29.4574475 L70.613134,29.4571857 L70.613134,29.4571857 L71.5982968,29.4563764 L73.5851368,29.4564485 L73.5851368,29.4564485 Z M48.4678085,49.7698672 L48.2111821,49.8035806 L48.28894,50.4082495 L48.5338271,50.3759409 C48.6271113,50.3636816 48.8366538,50.3331608 48.798406,50.035232 C48.7741698,49.8466161 48.6894692,49.7406235 48.4678085,49.7698672 Z M50.922094,48.7396313 L50.4992221,48.8425591 C50.4333298,48.564935 50.3599899,48.4726064 50.2314873,48.5037657 C49.98862,48.5628918 50.0120989,48.8018222 50.1390867,49.3366382 C50.2660745,49.8713265 50.3524161,50.0949327 50.5952834,50.0360621 C50.7952324,49.9874076 50.7249221,49.7293219 50.691471,49.5631815 L51.1172462,49.4597429 C51.2496619,50.0175453 51.0721819,50.2502183 50.6693807,50.3482935 C49.9578198,50.5209466 49.8315894,49.9890677 49.7018245,49.4428863 C49.5707973,48.8907028 49.4459554,48.3646983 50.1573901,48.1917897 C50.5974293,48.0847755 50.8328491,48.2874385 50.922094,48.7396313 Z M114.966423,29.3888192 L115,50.3645116 L108.81635,50.3645116 L108.811049,46.7690617 L103.649361,46.7690617 L101.891981,50.3645116 L95.1820766,50.3645116 L102.69266,35.3850667 L100.997764,35.376383 L103.991193,29.3888192 L114.966423,29.3888192 Z M52.1210557,47.5859331 L53.4257734,49.3770814 L52.9900259,49.5482021 L52.7102993,49.1474732 L52.1456707,49.3690362 L52.203358,49.8567301 L51.7950026,50.0169962 L51.5756141,47.7999617 L52.1210557,47.5859331 Z M40.0708348,47.7389329 C40.4786853,47.8917922 40.6477078,48.2181985 40.4687131,48.6300375 L40.0553085,48.4751349 C40.1263762,48.2893285 40.1562928,48.1134829 39.9357683,48.0308597 C39.6766172,47.9339339 39.5471048,48.2880515 39.404212,48.6784365 C39.173589,49.3086459 39.1934072,49.4428607 39.4304679,49.5316136 C39.4993897,49.5575371 39.5799247,49.5686472 39.6514974,49.5700519 L39.8148395,49.1238611 L39.5887608,49.0393224 L39.7019895,48.729645 L40.3442499,48.9702356 L39.9707341,49.99083 C39.8495529,49.9707808 39.5492507,49.9091007 39.3838889,49.8471653 C38.683815,49.5848653 38.7110807,49.2621624 38.9905549,48.498249 C39.1763661,47.9906335 39.3899479,47.483912 40.0708348,47.7389329 Z M45.4790888,49.0580052 L45.4736609,49.6708471 L45.7206938,49.6731457 C45.8529833,49.6742951 45.9455102,49.529481 45.9467725,49.3865824 C45.9482872,49.2111199 45.9025918,49.0618363 45.7026428,49.0601761 L45.4790888,49.0580052 Z M48.3704849,48.8976626 L48.0994682,48.9334191 L48.1691474,49.4760249 L48.4636429,49.4372035 C48.5598305,49.4246887 48.6856823,49.3421932 48.6591739,49.1356991 C48.638977,48.9795195 48.5193106,48.8781242 48.3704849,48.8976626 Z M41.5946001,48.5808211 L41.4657188,49.1641639 L41.6578415,49.2077103 C41.8300198,49.2466594 41.9173713,49.0835839 41.9467829,48.9498799 C41.9910898,48.7498986 41.9245664,48.6555268 41.786849,48.6243675 L41.5946001,48.5808211 Z M51.972735,48.0875466 L51.9673071,48.0897175 L52.1098212,49.0289658 L52.5045438,48.8739355 L51.972735,48.0875466 Z M40.3238637,35.6753206 C40.9295172,35.6753206 41.4941459,35.8451643 41.980133,36.1360694 C42.1355227,36.2374648 42.3150223,36.3914734 42.4245903,36.4973384 C44.261199,38.3449754 45.1350624,40.1643374 45.2075787,42.3088061 L45.2125154,42.6032819 L45.2125154,46.7701983 L44.809083,46.7701983 C44.6347587,44.2953335 43.1304708,42.8395306 39.9707972,42.07102 C38.6731485,41.7553406 37.9196791,41.2736487 37.4824169,40.6154726 C37.2111478,40.1336529 37.0538647,39.5776384 37.0538647,38.983441 C37.0538647,37.1564084 38.5178851,35.6753206 40.3238637,35.6753206 Z M54.2863114,41.2137054 C54.6561665,41.6881183 54.8802255,42.2839759 54.8802255,42.9351284 C54.8802255,44.4770023 53.6446822,45.7269495 52.1207023,45.7269495 C52.0003626,45.7269495 51.8819865,45.7185496 51.7657985,45.7030362 L51.5931854,45.6745917 C49.3976822,45.271058 48.395413,45.3276545 47.7712337,46.6213953 L47.703395,46.7702749 L47.305138,46.7702749 C47.4756753,44.5004995 48.8426245,43.2104539 51.8182542,42.4866389 C53.0030529,42.1984155 53.7787389,41.77138 54.2863114,41.2137054 Z M45.8828242,29.1502974 C48.2404297,29.1914174 50.0609248,31.0558667 50.0609248,33.3516933 C50.0609248,34.4114922 49.6721351,35.3789626 49.0321469,36.1181018 C49.0321469,36.1181018 48.9627202,36.1954892 48.9262396,36.2325228 C47.0327613,38.1494186 46.1348283,40.0487887 46.0603265,42.2947435 L46.0552549,42.6031926 L46.0552549,46.7702366 L45.6350338,46.7702366 L45.6350338,42.6031926 C45.6350338,40.2214225 44.7435946,38.2365503 42.7640492,36.2325228 C42.7274424,36.1954892 42.6580156,36.1181018 42.6580156,36.1181018 C42.0180274,35.3789626 41.6292377,34.4114922 41.6292377,33.3516933 C41.6292377,31.1254372 43.3411902,29.3048105 45.5945367,29.1607664 L45.8073384,29.1522129 L45.8073384,29.1502974 L45.8828242,29.1502974 Z M51.3664755,35.6752568 C53.1724542,35.6752568 54.6364746,37.1563446 54.6364746,38.9833771 C54.6364746,39.5777022 54.4791915,40.1335891 54.2077961,40.6155364 C53.7705339,41.2737125 53.0171907,41.7552768 51.719542,42.0709561 C48.6584859,42.8155745 47.151089,44.2049609 46.9013793,46.5412077 L46.88113,46.7702621 L46.4776976,46.7702621 L46.4776976,42.6032181 C46.4776976,40.3296116 47.3455318,38.428895 49.2657489,36.4972745 C49.3751907,36.3915373 49.5546903,36.2375287 49.7102062,36.1360056 C50.1960671,35.8452281 50.760822,35.6752568 51.3664755,35.6752568 Z M37.4039395,41.2136798 C37.911512,41.7713545 38.6871979,42.19839 39.8719967,42.4866134 C42.7515161,43.1870795 44.1247034,44.417954 44.3648601,46.5536498 L44.3851128,46.7702494 L43.9869821,46.7702494 C43.3895696,45.3838024 42.4443751,45.2632779 40.3364808,45.6330361 L40.0974442,45.6760986 C39.9261495,45.7081518 39.7500581,45.726924 39.5695486,45.726924 C38.0454425,45.726924 36.8100254,44.4769768 36.8100254,42.9352305 C36.8100254,42.2839503 37.0340844,41.6880928 37.4039395,41.2136798 Z M72.0502765,41.6755141 L70.1492464,41.6755141 L69.2593219,45.1202756 L71.3837799,45.1202756 C72.2734519,45.1202756 73.1961962,44.6742125 73.4941,43.5505626 C73.789353,42.426785 72.9389387,41.6755141 72.0502765,41.6755141 Z M108.825565,36.2400316 L106.016812,41.9083404 L108.844752,41.9083404 L108.825565,36.2400316 Z M71.8957705,34.975884 L71.0709809,37.9690912 L72.546867,37.9690912 C73.2213161,37.9690912 74.4198739,37.7920962 74.7185351,36.4651447 C75.0337274,35.0821627 74.1469645,34.9887118 73.5962908,34.9834485 L73.5293183,34.983163 L71.8957705,34.975884 Z" id="Fill-4" fill="#FFFFFF"></path>
    </g>
</svg>