<?xml version="1.0" encoding="UTF-8"?>
<svg width="148px" height="80px" viewBox="0 0 148 80" version="1.1" xmlns="http://www.w3.org/2000/svg" xmlns:xlink="http://www.w3.org/1999/xlink">
    <title>logo/logo_bni_white</title>
    <g id="logo/logo_bni_white" stroke="none" stroke-width="1" fill="none" fill-rule="evenodd">
        <path d="M61.3332916,51.7080252 C61.5569562,51.7080252 61.804464,51.8027705 61.9470617,52.0114266 L61.9736677,52.0638583 C61.9921638,52.1013311 62.0132074,52.1418753 62.0132074,52.1233281 L62.0276671,51.7795865 L62.4729966,51.7795865 C62.4617672,51.9154448 62.4482304,52.0533124 62.4482304,52.1922619 L62.4482304,53.8123605 C62.4482304,54.6567221 62.0822757,55 61.2422259,55 C60.7499792,55 60.3977151,54.7894892 60.3934079,54.2588845 L60.8501206,54.2588845 C60.8673493,54.5652225 61.0784,54.6826882 61.3834392,54.6826882 C62.0007474,54.6826882 62.0007474,54.1686214 62.0132074,53.6514635 L62.0007474,53.6514635 C61.8646104,53.9276623 61.5314209,54.0400274 61.247456,54.0400274 C60.5480042,54.0400274 60.2686542,53.5460535 60.2686542,52.8970558 C60.2686542,52.2338386 60.6366086,51.7080252 61.3332916,51.7080252 Z M85.9413983,51.7080252 C86.1647552,51.7080252 86.4102633,51.8027705 86.5539378,52.0114266 C86.564398,52.0210093 86.6220832,52.1542401 86.6220832,52.1233281 L86.6343894,51.7795865 L87.0846413,51.7795865 C87.0687971,51.9154448 87.0561833,52.0533124 87.0561833,52.1922619 L87.0561833,53.8123605 C87.0561833,54.6567221 86.6906901,55 85.8489482,55 C85.3559323,55 85.0033606,54.7894892 84.9990534,54.2588845 L85.4568429,54.2588845 C85.4746868,54.5652225 85.6858914,54.6826882 85.9906229,54.6826882 C86.6082388,54.6826882 86.6082388,54.1686214 86.6220832,53.6514635 L86.6082388,53.6514635 C86.470102,53.9276623 86.1386046,54.0400274 85.8546398,54.0400274 C85.1561109,54.0400274 84.8784529,53.5460535 84.8784529,52.8970558 C84.8784529,52.2338386 85.2460997,51.7080252 85.9413983,51.7080252 Z M109.023894,51.7080252 C109.248328,51.7080252 109.49199,51.8027705 109.632588,52.0114266 C109.644125,52.0210093 109.703502,52.1542401 109.703502,52.1233281 L109.716577,51.7795865 L110.162522,51.7795865 C110.151293,51.9154448 110.136064,52.0533124 110.136064,52.1922619 L110.136064,53.8123605 C110.136064,54.6567221 109.773032,55 108.931905,55 C108.437813,55 108.08924,54.7894892 108.082626,54.2588845 L108.538877,54.2588845 C108.559644,54.5652225 108.767926,54.6826882 109.072503,54.6826882 C109.688888,54.6826882 109.688888,54.1686214 109.703502,53.6514635 L109.688888,53.6514635 C109.553674,53.9276623 109.220485,54.0400274 108.937597,54.0400274 C108.237222,54.0400274 107.958487,53.5460535 107.958487,52.8970558 C107.958487,52.2338386 108.328288,51.7080252 109.023894,51.7080252 Z M88.7308682,51.7080252 C88.9531484,51.7080252 89.2009639,51.8027705 89.3420233,52.0114266 C89.3500223,52.0210093 89.410784,52.1542401 89.410784,52.1233281 L89.42509,51.7795865 L89.8718039,51.7795865 C89.8582671,51.9154448 89.8442688,52.0533124 89.8442688,52.1922619 L89.8442688,53.8123605 C89.8442688,54.6567221 89.4787756,55 88.6394949,55 C88.1437102,55 87.794215,54.7894892 87.7905231,54.2588845 L88.2440054,54.2588845 C88.2636953,54.5652225 88.4738231,54.6826882 88.780862,54.6826882 C89.3961705,54.6826882 89.3961705,54.1686214 89.410784,53.6514635 L89.3961705,53.6514635 C89.2583414,53.9276623 88.9256133,54.0400274 88.6433406,54.0400274 C87.942812,54.0400274 87.665154,53.5460535 87.665154,52.8970558 C87.665154,52.2338386 88.0329546,51.7080252 88.7308682,51.7080252 Z M44.1013638,51.7794783 L44.8177366,53.598032 L45.5493384,51.7794783 L46.0169728,51.7794783 L44.6680629,54.9637248 L44.2261176,54.9637248 L44.5737669,54.0725314 L43.6197311,51.7794783 L44.1013638,51.7794783 Z M69.4543013,53.5313239 L68.9406726,54.6566757 L68.6311725,54.6566757 L68.9246746,53.5313239 L69.4543013,53.5313239 Z M75.2880405,51.7080716 C75.9705714,51.7243004 76.2951466,52.1587687 76.2951466,52.7957108 L76.2951466,53.0139496 L74.6802696,53.0139496 C74.6479659,53.4162694 74.8127147,53.8349726 75.2561983,53.8349726 C75.593695,53.8349726 75.7610589,53.7018964 75.8127448,53.3658828 L76.2688421,53.3658828 C76.2006967,53.8893778 75.7993618,54.1535209 75.2514297,54.1535209 C74.5150593,54.1535209 74.2218648,53.6290986 74.2218648,52.9471796 C74.2218648,52.2754616 74.5607459,51.7080716 75.2880405,51.7080716 Z M80.5645102,51.7080561 C81.0356826,51.7080561 81.4990099,51.8505605 81.4990099,52.4961579 L81.4990099,53.5980166 C81.4990099,53.6973987 81.5048553,53.8893623 81.5194689,54.0831806 L81.2255053,54.0831806 C81.1853564,54.0831806 81.1070584,54.104819 81.1030589,54.0484046 C81.0930601,53.9445402 81.084292,53.8428397 81.0806002,53.7389754 L81.0699861,53.7389754 C80.9283113,54.0278481 80.673266,54.1535054 80.3569974,54.1535054 C79.9588929,54.1535054 79.5597116,53.9445402 79.5597116,53.4975525 C79.5597116,52.8499459 80.1293333,52.6589096 80.673266,52.6589096 L81.0649098,52.6589096 C81.0649098,52.2598356 81.0449123,52.0255225 80.5806621,52.0255225 C80.3620737,52.0255225 80.1554839,52.1541165 80.1520997,52.3929118 L79.6953871,52.3929118 C79.7183073,51.8896642 80.1099511,51.7080561 80.5645102,51.7080561 Z M38.4981346,51.7080716 C39.1811269,51.7243004 39.5061636,52.1587687 39.5061636,52.7957108 L39.5061636,53.0139496 L37.8903637,53.0139496 C37.8566755,53.4162694 38.0243471,53.8349726 38.4662924,53.8349726 C38.8039429,53.8349726 38.9725374,53.7018964 39.0249924,53.3658828 L39.480013,53.3658828 C39.413252,53.8893778 39.0094559,54.1535209 38.4609084,54.1535209 C37.7257687,54.1535209 37.4342663,53.6290986 37.4342663,52.9471796 C37.4342663,52.2754616 37.77084,51.7080716 38.4981346,51.7080716 Z M47.3285027,51.7080561 C47.8004442,51.7080561 48.2651559,51.8505605 48.2651559,52.4961579 L48.2651559,53.5980166 C48.2651559,53.6973987 48.2716166,53.8893623 48.2851534,54.0831806 L47.9948817,54.0831806 C47.950118,54.0831806 47.8725891,54.104819 47.8698202,54.0484046 C47.8608983,53.9445402 47.8505919,53.8428397 47.8462847,53.7389754 L47.8376704,53.7389754 C47.6953803,54.0278481 47.4387967,54.1535054 47.1257585,54.1535054 C46.726731,54.1535054 46.3266267,53.9445402 46.3266267,53.4975525 C46.3266267,52.8499459 46.8954794,52.6589096 47.4387967,52.6589096 L47.8329017,52.6589096 C47.8329017,52.2598356 47.810443,52.0255225 47.3465004,52.0255225 C47.1292966,52.0255225 46.9234759,52.1541165 46.9177843,52.3929118 L46.4612254,52.3929118 C46.4866069,51.8896642 46.8785584,51.7080561 47.3285027,51.7080561 Z M103.647144,51.7080561 C104.117086,51.7080561 104.584105,51.8505605 104.584105,52.4961579 L104.584105,53.5980166 C104.584105,53.6973987 104.587643,53.8893623 104.601026,54.0831806 L104.308447,54.0831806 C104.26676,54.0831806 104.188616,54.104819 104.187231,54.0484046 C104.175233,53.9445402 104.166465,53.8428397 104.161388,53.7389754 L104.15262,53.7389754 C104.013253,54.0278481 103.755439,54.1535054 103.441324,54.1535054 C103.044911,54.1535054 102.641115,53.9445402 102.641115,53.4975525 C102.641115,52.8499459 103.21289,52.6589096 103.755439,52.6589096 L104.14939,52.6589096 C104.14939,52.2598356 104.1257,52.0255225 103.665142,52.0255225 C103.445477,52.0255225 103.240118,52.1541165 103.236426,52.3929118 L102.777252,52.3929118 C102.800634,51.8896642 103.194893,51.7080561 103.647144,51.7080561 Z M111.656306,51.7079943 C112.090868,51.7079943 112.580346,51.8917662 112.547734,52.4168068 L112.090868,52.4168068 C112.107174,52.1234518 111.883817,52.0256152 111.636616,52.0256152 C111.401107,52.0256152 111.215746,52.1361257 111.215746,52.3930045 C111.215746,52.6511198 111.606005,52.6685851 111.7726,52.7202082 C112.16009,52.8500386 112.608188,52.8940882 112.608188,53.4132555 C112.608188,53.976936 112.059949,54.1534436 111.588776,54.1534436 C111.10822,54.1534436 110.707808,53.9282496 110.7115,53.3993451 L111.169444,53.3993451 C111.176058,53.6837356 111.368803,53.8350499 111.636616,53.8350499 C111.890277,53.8350499 112.148553,53.7344313 112.148553,53.4344302 C112.148553,52.9200543 110.75611,53.3097002 110.75611,52.4086151 C110.75611,51.9240693 111.240973,51.7079943 111.656306,51.7079943 Z M42.2525466,51.7080561 C42.7260264,51.7080561 43.1891998,51.8505605 43.1891998,52.4961579 L43.1891998,53.5980166 C43.1891998,53.6973987 43.1959682,53.8893623 43.2098127,54.0831806 L42.9161567,54.0831806 C42.8740081,54.0831806 42.7981713,54.104819 42.7917106,54.0484046 C42.7835578,53.9445402 42.7743281,53.8428397 42.7709439,53.7389754 L42.7614067,53.7389754 C42.6197319,54.0278481 42.3633021,54.1535054 42.0482642,54.1535054 C41.6504673,54.1535054 41.250363,53.9445402 41.250363,53.4975525 C41.250363,52.8499459 41.8175235,52.6589096 42.3633021,52.6589096 L42.7549459,52.6589096 C42.7549459,52.2598356 42.7346407,52.0255225 42.2711597,52.0255225 C42.0542634,52.0255225 41.8490581,52.1541165 41.8430588,52.3929118 L41.3872691,52.3929118 C41.4097279,51.8896642 41.7999872,51.7080561 42.2525466,51.7080561 Z M58.795452,51.7080716 C59.4801364,51.7243004 59.8040963,52.1587687 59.8040963,52.7957108 L59.8040963,53.0139496 L58.1902961,53.0139496 C58.1552236,53.4162694 58.321203,53.8349726 58.7639174,53.8349726 C59.1015679,53.8349726 59.2717007,53.7018964 59.3195409,53.3658828 L59.7784072,53.3658828 C59.7098003,53.8893778 59.3075424,54.1535209 58.7588411,54.1535209 C58.0243167,54.1535209 57.7315837,53.6290986 57.7315837,52.9471796 C57.7315837,52.2754616 58.0700033,51.7080716 58.795452,51.7080716 Z M91.4683293,51.7080561 C91.9395017,51.7080561 92.4049825,51.8505605 92.4049825,52.4961579 L92.4049825,53.5980166 C92.4049825,53.6973987 92.408982,53.8893623 92.4235956,54.0831806 L92.1299396,54.0831806 C92.0884063,54.0831806 92.0098007,54.104819 92.0078009,54.0484046 C91.9968792,53.9445402 91.9891878,53.8428397 91.9839577,53.7389754 L91.9762664,53.7389754 C91.8348992,54.0278481 91.5792386,54.1535054 91.2615856,54.1535054 C90.8676344,54.1535054 90.4633768,53.9445402 90.4633768,53.4975525 C90.4633768,52.8499459 91.0346906,52.6589096 91.5792386,52.6589096 L91.9705748,52.6589096 C91.9705748,52.2598356 91.9470392,52.0255225 91.4835581,52.0255225 C91.2672772,52.0255225 91.061918,52.1541165 91.0565341,52.3929118 L90.5999752,52.3929118 C90.6221263,51.8896642 91.0166929,51.7080561 91.4683293,51.7080561 Z M114.043965,51.7080561 C114.515445,51.7080561 114.979541,51.8505605 114.979541,52.4961579 L114.979541,53.5980166 C114.979541,53.6973987 114.986002,53.8893623 115,54.0831806 L114.708651,54.0831806 C114.667426,54.0831806 114.589282,54.104819 114.582821,54.0484046 C114.575283,53.9445402 114.567131,53.8428397 114.559901,53.7389754 L114.550979,53.7389754 C114.408073,54.0278481 114.153182,54.1535054 113.839682,54.1535054 C113.442347,54.1535054 113.039781,53.9445402 113.039781,53.4975525 C113.039781,52.8499459 113.61048,52.6589096 114.153182,52.6589096 L114.545133,52.6589096 C114.545133,52.2598356 114.522674,52.0255225 114.061962,52.0255225 C113.843066,52.0255225 113.637246,52.1541165 113.634631,52.3929118 L113.176687,52.3929118 C113.200377,51.8896642 113.59279,51.7080561 114.043965,51.7080561 Z M77.3564921,50.7697684 L77.3564921,52.0895567 L77.3643372,52.0895567 C77.4975515,51.8145944 77.7845929,51.7079479 78.0759414,51.7079479 C78.7918528,51.7079479 79.1090443,52.3065591 79.1090443,52.9320636 C79.1090443,53.5234104 78.837078,54.1535518 78.1547009,54.1535518 C77.8218191,54.1535518 77.5195488,54.0376318 77.3643372,53.7155286 L77.3564921,53.7155286 L77.3643372,53.7390217 L77.3469548,54.083227 L76.8962414,54.083227 C76.9060863,53.9445866 76.9196231,53.8062554 76.9196231,53.7155286 L76.9196231,50.7697684 L77.3564921,50.7697684 Z M94.0074456,51.7080561 C94.4752338,51.7080561 94.9414838,51.8505605 94.9414838,52.4961579 L94.9414838,53.5980166 C94.9414838,53.6973987 94.944868,53.8893623 94.9597892,54.0831806 L94.6698251,54.0831806 C94.6282918,54.0831806 94.5507629,54.104819 94.5439946,54.0484046 C94.536457,53.9445402 94.5273812,53.8428397 94.5229202,53.7389754 L94.5119985,53.7389754 C94.3723235,54.0278481 94.1166629,54.1535054 93.8014711,54.1535054 C93.403828,54.1535054 93.0029546,53.9445402 93.0029546,53.4975525 C93.0029546,52.8499459 93.5708843,52.6589096 94.1166629,52.6589096 L94.5075375,52.6589096 C94.5075375,52.2598356 94.4855403,52.0255225 94.0262125,52.0255225 C93.8062398,52.0255225 93.5998038,52.1541165 93.595189,52.3929118 L93.1370918,52.3929118 C93.1604736,51.8896642 93.5525789,51.7080561 94.0074456,51.7080561 Z M64.1247767,51.7080716 C64.8073075,51.7243004 65.132498,52.1587687 65.132498,52.7957108 L65.132498,53.0139496 L63.5163905,53.0139496 C63.4839329,53.4162694 63.6491433,53.8349726 64.0926268,53.8349726 C64.4295082,53.8349726 64.5976412,53.7018964 64.6482503,53.3658828 L65.1043477,53.3658828 C65.0385097,53.8893778 64.6344059,54.1535209 64.0860122,54.1535209 C63.3508725,54.1535209 63.0573704,53.6290986 63.0573704,52.9471796 C63.0573704,52.2754616 63.3979436,51.7080716 64.1247767,51.7080716 Z M52.2630301,51.7795402 L52.2630301,54.0831033 L51.8306221,54.0831033 L51.8306221,51.7795402 L52.2630301,51.7795402 Z M66.9031711,51.7466652 C66.9579335,51.7466652 67.0016204,51.7517657 67.0520757,51.7517657 L67.0520757,52.1638228 C66.9931599,52.1397115 66.9257837,52.1397115 66.8654834,52.1397115 C66.3161669,52.1587224 66.2221785,52.4526956 66.2221785,52.9417236 L66.2221785,54.0831497 L65.7897705,54.0831497 L65.7897705,51.7795865 L66.2221785,51.7795865 L66.2221785,52.224565 L66.229716,52.224565 C66.2943234,51.9041619 66.588287,51.7466652 66.9031711,51.7466652 Z M51.0295674,52.4901301 L51.0295674,54.0831806 L50.5942367,54.0831806 L50.5942367,52.6329436 C50.5942367,52.251953 50.4336412,52.0454608 50.0679942,52.0454608 L50.0282059,52.0458979 C49.9531719,52.0501362 49.7860291,52.0758704 49.6494307,52.2139312 C49.583285,52.2791556 49.467607,52.3799287 49.467607,52.8292348 L49.467607,54.0831806 L49.0319686,54.0831806 L49.0319686,51.7794629 L49.4568391,51.7794629 L49.4568391,52.1176403 L49.467607,52.1176403 C49.6118968,51.8287675 49.9321649,51.7080561 50.1599828,51.7080561 C50.3191939,51.7080561 51.0295674,51.7517966 51.0295674,52.4901301 Z M34.1302447,50.7697838 L35.0796656,53.4990054 L35.0887414,53.4990054 L36.019703,50.7697838 L36.7833008,50.7697838 L36.7833008,54.0830879 L36.3250498,54.0830879 L36.3250498,51.0979148 L36.3187429,51.0979148 L35.2630275,54.0830879 L34.8349266,54.0830879 L33.7769038,51.0979148 L33.7692124,51.0979148 L33.7692124,54.0830879 L33.3106538,54.0830879 L33.3106538,50.7697838 L34.1302447,50.7697838 Z M67.9933899,51.7795402 L67.9933899,54.0831033 L67.5606743,54.0831033 L67.5606743,51.7795402 L67.9933899,51.7795402 Z M84.2620677,52.4901301 L84.2620677,54.0831806 L83.8270447,54.0831806 L83.8270447,52.6329436 C83.8270447,52.251953 83.6667568,52.0454608 83.3024943,52.0454608 L83.2625617,52.0458979 C83.1872681,52.0501362 83.0196062,52.0758704 82.8830077,52.2139312 C82.8194771,52.2791556 82.6974922,52.3799287 82.6974922,52.8292348 L82.6974922,54.0831806 L82.2666225,54.0831806 L82.2666225,51.7794629 L82.6893394,51.7794629 L82.6893394,52.1176403 L82.6974922,52.1176403 C82.8476275,51.8287675 83.1635884,51.7080561 83.3964826,51.7080561 C83.5550784,51.7080561 84.2620677,51.7517966 84.2620677,52.4901301 Z M40.5924752,50.7697993 L40.5924752,54.0834125 L40.1599134,54.0834125 L40.1599134,50.7697993 L40.5924752,50.7697993 Z M71.8251155,50.7698456 L71.8251155,52.2072542 L73.1987915,50.7698456 L73.8216375,50.7698456 L72.3485891,52.2519221 L73.9868478,54.0831497 L73.3435428,54.0831497 L71.8251155,52.3219378 L71.8251155,54.0831497 L71.3654801,54.0831497 L71.3654801,50.7698456 L71.8251155,50.7698456 Z M107.345225,52.4901301 L107.345225,54.0831806 L106.911432,54.0831806 L106.911432,52.6329436 C106.911432,52.251953 106.749606,52.0454608 106.38519,52.0454608 L106.345469,52.0458979 C106.270492,52.0501362 106.103148,52.0758704 105.964011,52.2139312 C105.902327,52.2791556 105.784033,52.3799287 105.784033,52.8292348 L105.784033,54.0831806 L105.349318,54.0831806 L105.349318,51.7794629 L105.775573,51.7794629 L105.775573,52.1176403 L105.784033,52.1176403 C105.928169,51.8287675 106.248745,51.7080561 106.477025,51.7080561 C106.635774,51.7080561 107.345225,51.7517966 107.345225,52.4901301 Z M97.7060184,52.4901301 L97.7060184,54.0831806 L97.271303,54.0831806 L97.271303,52.6329436 C97.271303,52.251953 97.1105537,52.0454608 96.7453681,52.0454608 L96.705325,52.0458979 C96.6298151,52.0501362 96.461634,52.0758704 96.3243433,52.2139312 C96.2605051,52.2791556 96.1415967,52.3799287 96.1415967,52.8292348 L96.1415967,54.0831806 L95.7070352,54.0831806 L95.7070352,51.7794629 L96.1334439,51.7794629 L96.1334439,52.1176403 L96.1415967,52.1176403 C96.2885016,51.8287675 96.6080005,51.7080561 96.8347417,51.7080561 C96.9965678,51.7080561 97.7060184,51.7517966 97.7060184,52.4901301 Z M55.024642,50.7697684 L56.6352118,53.5071816 L56.6419802,53.5071816 L56.6419802,50.7697684 L57.050545,50.7697684 L57.050545,54.0830724 L56.4815385,54.0830724 L54.8162062,51.2672972 L54.8062075,51.2672972 L54.8062075,54.0830724 L54.397335,54.0830724 L54.397335,50.7697684 L55.024642,50.7697684 Z M100.967199,50.7697684 C101.534821,50.7697684 102.033067,50.987698 102.033067,51.6315953 C102.033067,51.9761097 101.798327,52.2558634 101.472675,52.3461264 L101.472675,52.3575639 C101.900622,52.4224791 102.131363,52.800533 102.131363,53.2142903 C102.131363,53.6002268 101.880163,53.8894087 101.534821,54.0186209 C101.408606,54.0670755 101.26422,54.0804932 101.11607,54.0831956 L99.7888836,54.083227 L99.7888836,50.7697684 L100.967199,50.7697684 Z M78.0028736,52.0255689 C77.5101653,52.0255689 77.3564921,52.5133604 77.3564921,52.9320636 C77.3564921,53.3617406 77.4789384,53.8350035 78.0028736,53.8350035 C78.4920438,53.8350035 78.6507933,53.3617406 78.6507933,52.9320636 C78.6507933,52.498059 78.5232707,52.0255689 78.0028736,52.0255689 Z M47.8329017,52.9613837 L47.3981863,52.9613837 C47.1340652,52.9771488 46.781955,53.0731306 46.781955,53.4072895 C46.781955,53.6936893 46.9786998,53.8349572 47.233899,53.8349572 C47.7467586,53.8349572 47.8407469,53.3902879 47.8329017,52.9613837 Z M104.14939,52.9613837 L103.714982,52.9613837 C103.448861,52.9771488 103.098289,53.0731306 103.098289,53.4072895 C103.098289,53.6936893 103.293034,53.8349572 103.550233,53.8349572 C104.060478,53.8349572 104.158004,53.3902879 104.14939,52.9613837 Z M94.5075375,52.9613837 L94.0742066,52.9613837 C93.8103931,52.9771488 93.4578214,53.0731306 93.4578214,53.4072895 C93.4578214,53.6936893 93.6548739,53.8349572 93.9126881,53.8349572 C94.4212405,53.8349572 94.5178439,53.3902879 94.5075375,52.9613837 Z M81.0649098,52.9613837 L80.6328094,52.9613837 C80.3649965,52.9771488 80.018424,53.0731306 80.018424,53.4072895 C80.018424,53.6936893 80.2131691,53.8349572 80.4683683,53.8349572 C80.9778436,53.8349572 81.0729088,53.3902879 81.0649098,52.9613837 Z M42.7549459,52.9613837 L42.3209997,52.9613837 C42.0556479,52.9771488 41.7064604,53.0731306 41.7064604,53.4072895 C41.7064604,53.6936893 41.9012055,53.8349572 42.1564046,53.8349572 C42.6689566,53.8349572 42.7666368,53.3902879 42.7549459,52.9613837 Z M91.9705748,52.9613837 L91.5377053,52.9613837 C91.272815,52.9771488 90.9216277,53.0731306 90.9216277,53.4072895 C90.9216277,53.6936893 91.1146807,53.8349572 91.3720335,53.8349572 C91.8830471,53.8349572 91.9813426,53.3902879 91.9705748,52.9613837 Z M114.545133,52.9613837 L114.113341,52.9613837 C113.847066,52.9771488 113.496648,53.0731306 113.496648,53.4072895 C113.496648,53.6936893 113.69047,53.8349572 113.94813,53.8349572 C114.459759,53.8349572 114.554978,53.3902879 114.545133,52.9613837 Z M88.7671714,52.0256462 C88.2603111,52.0256462 88.1217129,52.5134377 88.1217129,52.8758811 C88.1217129,53.2394063 88.2603111,53.7227156 88.7671714,53.7227156 C89.2377285,53.7227156 89.410784,53.3202412 89.410784,52.8758811 C89.410784,52.4292025 89.2377285,52.0256462 88.7671714,52.0256462 Z M109.059582,52.0256462 C108.554106,52.0256462 108.414431,52.5134377 108.414431,52.8758811 C108.414431,53.2394063 108.554106,53.7227156 109.059582,53.7227156 C109.530293,53.7227156 109.703502,53.3202412 109.703502,52.8758811 C109.703502,52.4292025 109.530293,52.0256462 109.059582,52.0256462 Z M61.368518,52.0256462 C60.86135,52.0256462 60.7267513,52.5134377 60.7267513,52.8758811 C60.7267513,53.2394063 60.86135,53.7227156 61.368518,53.7227156 C61.8404595,53.7227156 62.0132074,53.3202412 62.0132074,52.8758811 C62.0132074,52.4292025 61.8404595,52.0256462 61.368518,52.0256462 Z M85.9777014,52.0256462 C85.4702258,52.0256462 85.3356271,52.5134377 85.3356271,52.8758811 C85.3356271,53.2394063 85.4702258,53.7227156 85.9777014,53.7227156 C86.4459512,53.7227156 86.6220832,53.3202412 86.6220832,52.8758811 C86.6220832,52.4292025 86.4459512,52.0256462 85.9777014,52.0256462 Z M101.007502,52.5583374 L100.246212,52.5583374 L100.246212,53.6870895 L101.007502,53.6870895 C101.359304,53.6870895 101.653114,53.531293 101.653114,53.1229453 C101.653114,52.716916 101.359304,52.5583374 101.007502,52.5583374 Z M64.0926268,52.025538 C63.7299025,52.025538 63.5163905,52.334349 63.5163905,52.7096208 L64.6764007,52.7096208 C64.6848612,52.3219842 64.511498,52.025538 64.0926268,52.025538 Z M38.4662924,52.025538 C38.1041833,52.025538 37.8903637,52.334349 37.8903637,52.7096208 L39.0500662,52.7096208 C39.0589882,52.3219842 38.8860865,52.025538 38.4662924,52.025538 Z M75.2561983,52.025538 C74.893474,52.025538 74.6802696,52.334349 74.6802696,52.7096208 L75.8405875,52.7096208 C75.8495094,52.3219842 75.6753772,52.025538 75.2561983,52.025538 Z M58.7639174,52.025538 C58.4055003,52.025538 58.1902961,52.334349 58.1902961,52.7096208 L59.3498449,52.7096208 C59.3573824,52.3219842 59.1849422,52.025538 58.7639174,52.025538 Z M100.813064,51.1609599 L100.246212,51.1609599 L100.246212,52.1639001 L100.813064,52.1639001 C101.244703,52.1792016 101.552511,52.0974393 101.552511,51.6638983 C101.552511,51.2274207 101.244703,51.1485951 100.813064,51.1609599 Z M52.3053325,50.7697993 L52.3053325,51.2395073 L51.7893964,51.2395073 L51.7893964,50.7697993 L52.3053325,50.7697993 Z M68.0352309,50.7697993 L68.0352309,51.2395073 L67.5188333,51.2395073 L67.5188333,50.7697993 L68.0352309,50.7697993 Z M87.2737871,25.0000155 L87.2737871,25.0343278 C87.4097703,25.4445302 87.6277433,25.6721972 87.7846469,25.8905905 C87.9427812,26.1097567 88.2624339,26.5757553 88.2624339,26.5757553 L99.751319,42.1379443 L99.7511222,29.0007029 C99.7463096,27.2985002 99.6519296,26.0545673 97.980769,25.1038798 L97.980769,25.0000155 L103.98018,25.0000155 L103.98018,25.1038798 C102.27254,26.0925948 102.209294,27.398484 102.206951,29.2071775 L102.206861,48.8217397 C101.116381,48.384953 98.0569134,45.8344028 95.8816443,42.8926611 C95.3857838,42.2231953 94.8649774,41.5206045 94.3335563,40.8040968 L93.9332241,40.2644066 C93.6653077,39.9032737 93.3956333,39.539862 93.1259923,39.1765725 L92.7217798,38.63203 C89.5591532,34.3718669 86.5248029,30.2943158 86.5248029,30.2943158 L86.5249789,43.6698714 C86.5296266,45.3722693 86.6229674,46.6204266 88.2961221,47.6048883 L88.2961221,47.7055069 L82.2628691,47.7055069 L82.2628691,47.6048883 C83.9363086,46.6204266 84.0305937,45.3722693 84.0353797,43.6698714 L84.0353812,29.1325507 C84.0306139,27.4164344 83.9365821,26.0545673 82.266561,25.1038798 L82.266561,25.0000155 L87.2737871,25.0000155 Z M114.868355,25.0000309 L114.868355,25.1037407 C113.186167,26.0398694 113.1108,27.4308471 113.107491,28.9063718 L113.107415,43.8520506 C113.111449,45.2694034 113.201768,46.66997 114.868355,47.6010398 L114.868355,47.7008856 L107.809229,47.7008856 L107.809229,47.6010398 C109.483341,46.6596977 109.570569,45.2816511 109.574083,43.8612592 L109.574087,29.0838169 C109.574087,27.509159 109.549936,26.1060627 107.809229,25.1037407 L107.809229,25.0000309 L114.868355,25.0000309 Z M33.0000308,33.5362441 L39.794574,42.0313288 L33.0011076,47.5514415 L33.0000308,47.5514415 L33.0000308,33.5362441 Z M45.3521782,39.3944414 C48.0555357,42.4099082 51.469113,44.385495 55.4455437,42.216399 L55.4455437,42.216399 L55.4455437,47.5515033 L47.7241921,47.5515033 L49.3642967,46.2048214 L49.2832298,46.0997206 C46.9664398,46.846864 45.1034397,44.0748292 43.8274439,42.4728142 L43.8274439,42.4728142 L42.9435533,41.3694099 C43.8619012,40.6219574 44.6868759,39.9448298 45.3521782,39.3944414 Z M40.7111836,43.1770207 L41.6230707,44.3226199 C42.3285218,45.2046942 43.3508567,46.3530755 43.9100183,47.5515342 L43.9100183,47.5515342 L35.2726263,47.5515342 C36.8664289,46.2730133 38.8380309,44.6906274 40.7111836,43.1770207 L40.7111836,43.1770207 Z M70.4251196,25 C74.9277928,25 77.5516218,26.9197905 77.5516218,29.9670967 C77.5516218,32.2621591 76.2071728,34.0569106 74.1386598,34.4213632 C77.2096641,35.069279 79.7002788,37.1284827 79.7002788,40.4875365 C79.7002788,43.1209309 78.1561623,45.2792076 75.6083239,46.4833851 C73.591669,47.4336141 71.0049599,47.5342847 67.746173,47.5421734 L66.3081049,47.5420801 L66.3081049,47.5420801 L65.8101526,47.5418124 L61.5232988,47.5418124 L61.5232988,47.4419666 C63.2062813,46.5299191 63.2954704,45.0615932 63.2994491,43.6001578 L63.2994491,28.9214153 C63.2954704,27.4877837 63.2062813,26.0317972 61.5232988,25.1038644 L61.5232988,25.1038644 L61.5232988,25 Z M69.7136692,36.2009678 L66.791108,36.2134871 L66.791108,45.2294393 L69.5072333,45.2237205 C72.9692661,45.2237205 75.9149013,44.0521553 75.9149013,40.7940291 C75.9149013,37.4717606 73.108172,36.2009678 69.7136692,36.2009678 L69.7136692,36.2009678 Z M48.8195949,30.6966666 C50.9154893,28.9818227 53.3887215,29.7573313 55.4455437,31.8713231 L55.4455437,31.8713231 L55.4455437,40.7456982 C53.1550581,41.8504935 50.9061058,40.3906737 49.2210837,38.3092134 C47.0465837,35.6155406 46.4677323,32.6158389 48.8100577,30.6999124 L48.8100577,30.6999124 Z M40.0558955,25 C38.8741957,28.6202604 40.5061475,32.7171839 43.2779581,36.7372912 C43.6376058,37.2589314 44.0201739,37.7750074 44.4147404,38.2808825 L44.4147404,38.2808825 L42.0262669,40.2201476 L33,28.9066601 L33,25 Z M55.4455437,25.0000309 L55.4455437,28.0128702 C53.2096667,27.0612439 50.6838256,27.3559899 48.6626913,28.903909 C46.3334413,30.6887686 45.9491812,33.0982054 45.8004303,34.3740987 C44.3293817,32.7022225 42.1685724,28.6708324 42.9889323,25.0000309 L42.9889323,25.0000309 L55.4455437,25.0000309 Z M66.791108,27.0814604 L66.791108,34.0845768 L69.2512649,34.0794763 C71.947085,34.0794763 73.8374663,33.3266143 73.8374663,30.5187216 C73.8374663,28.1530253 71.696193,27.1250463 69.6076824,27.1250463 L69.6076824,27.1250463 L66.791108,27.0814604 Z" id="Fill-5" fill="#FEFEFE"></path>
    </g>
</svg>