<?xml version="1.0" encoding="UTF-8"?>
<svg width="148px" height="80px" viewBox="0 0 148 80" version="1.1" xmlns="http://www.w3.org/2000/svg" xmlns:xlink="http://www.w3.org/1999/xlink">
    <title>logo/logo_bri_white</title>
    <g id="logo/logo_bri_white" stroke="none" stroke-width="1" fill="none" fill-rule="evenodd">
        <path d="M59.2770021,25 C61.8890549,25 64.0096737,27.1687603 64.0096737,29.8469288 L64.0096737,29.8469288 L63.9993305,51.1530712 C63.9993305,53.8315046 61.8744684,56 59.2616199,56 L59.2616199,56 L37.6613301,55.9994702 C35.07792,55.9615891 33,53.8068687 33,51.1530712 L33,51.1530712 L33,29.8469288 C33,27.1687603 35.1203536,25 37.7324064,25 L37.7324064,25 Z M41.4342069,27.4617429 L39.0465217,27.4617429 C37.6592084,27.4617429 36.6015512,28.5862558 36.5440006,29.9780558 L36.5440006,29.9780558 L36.5355139,31.0384622 L36.5355139,50.714127 L36.5440006,50.9212811 C36.5440006,52.3599689 37.6936857,53.5311047 39.1173328,53.5311047 L39.1173328,53.5311047 L40.2927433,53.5162702 C42.9101003,53.5162702 45.0246192,51.5888365 45.0246192,49.2121274 C45.0246192,48.1228466 44.580923,47.1262818 43.8465566,46.3660104 L43.8465566,46.3660104 L38.1334038,40.5521859 L44.2268677,34.379153 C44.9249003,33.6530541 45.3561317,32.6596681 45.3561317,31.5587315 C45.3561317,29.3433484 43.6022983,27.4617429 41.4342069,27.4617429 L41.4342069,27.4617429 Z M50.0097707,27.4617429 L47.4271562,27.4617429 C48.1718658,28.5316858 48.632005,30.0058706 48.632005,31.6691961 C48.632005,33.7688167 47.8984343,35.6143953 46.786409,36.6575831 L46.786409,36.6575831 L43.0721436,40.491788 L46.7148023,44.2025482 C47.7660945,45.3877239 48.4373409,47.1832359 48.4373409,49.1890809 C48.4373409,50.8338631 47.2051755,53.4953428 47.2051755,53.4953428 L47.2051755,53.4953428 L57.8586593,53.4985217 C58.3527454,53.4985217 58.8476272,53.385673 59.2433204,53.1385186 L59.2433204,53.1385186 L46.82566,40.4896688 L52.8058793,34.379153 C53.5020554,33.6530541 53.9319607,32.6596681 53.9319607,31.5587315 C53.9319607,29.3433484 52.176536,27.4617429 50.0097707,27.4617429 L50.0097707,27.4617429 Z M76.5558283,27.4466699 C77.9943271,27.4466699 79.2538092,27.6326318 80.3329485,28.0042906 C81.412353,28.3759494 82.3111495,28.8906558 83.0311945,29.5468203 C83.7504439,30.2037796 84.2835159,30.9719981 84.6312062,31.8514758 C84.9786312,32.7314833 85.1523437,33.679306 85.1523437,34.6952087 C85.1523437,35.2157429 85.0780849,35.7052835 84.9290369,36.1635656 C84.7802541,36.6223775 84.5999114,37.0369505 84.3895999,37.4088742 C84.1784928,37.7805331 83.9549208,38.1029199 83.7194143,38.3752401 C83.4836427,38.6480901 83.2786354,38.8714033 83.1054533,39.0443849 C83.9986804,39.6639929 84.7802541,40.5440004 85.4501745,41.6836128 C86.1198296,42.823755 86.4547898,44.1246932 86.4547898,45.5866925 C86.4547898,46.6772978 86.274447,47.6995582 85.9153527,48.6532087 C85.5551976,49.607654 85.0035609,50.4439525 84.2593818,51.1626342 C83.5149375,51.8815807 82.5782159,52.4447643 81.4494824,52.8537744 C80.3202184,53.2627846 78.9992076,53.4670247 77.4861848,53.4670247 L77.4861848,53.4670247 L67.0658206,53.4670247 L67.0658206,27.4466699 Z M98.4095793,27.4468289 C99.9223368,27.4468289 101.256608,27.6452411 102.410271,28.041271 C103.563935,28.4380956 104.525056,28.9893586 105.29443,29.6955898 C106.063273,30.401821 106.640105,31.2447421 107.024925,32.2232935 C107.409214,33.2026396 107.601756,34.274172 107.601756,35.4386852 C107.601756,36.3308783 107.477373,37.2042632 107.229401,38.0593699 C106.98143,38.9142116 106.596876,39.6948805 106.076003,40.4011117 C105.555131,41.1073429 104.903775,41.7272158 104.121936,42.2599356 C103.340628,42.7929203 102.428836,43.1955727 101.386826,43.4678929 L101.386826,43.4678929 L108.420459,53.4671837 L102.639678,53.4671837 L95.8381036,43.8024653 L93.0878763,43.8024653 L93.0878763,53.4671837 L88.1557669,53.4671837 L88.1557669,27.4468289 Z M110.013257,27.4467494 C110.063647,27.4467494 110.112446,27.4525772 110.16204,27.4541667 L110.16204,27.4541667 L110.16204,27.4467494 L115,27.4467494 L115,53.4671042 L109.971619,53.4671042 L109.971619,27.4467494 Z M55.9929073,27.4135306 C56.7407993,28.4834735 57.2096905,29.9955394 57.2096905,31.6691961 C57.2096905,33.4829864 56.6596451,35.1055168 55.795591,36.1863208 L55.795591,36.1863208 L51.557536,40.4872847 L60.4577168,49.5482892 L60.4648775,30.0826924 C60.4648775,28.6395013 59.3090925,27.4728688 57.8880976,27.4728688 L57.8880976,27.4728688 Z M77.746621,42.1297093 L71.9037805,42.1297093 L71.9037805,48.917317 L77.1835803,48.917317 C78.7400975,48.917317 79.8576922,48.5840691 80.5374253,47.9178382 C81.2168932,47.2513425 81.5566272,46.4497462 81.5566272,45.5117249 C81.5566272,44.6009887 81.2566747,43.8134323 80.6623392,43.1466716 C80.0295483,42.4690499 79.0575538,42.1297093 77.746621,42.1297093 L77.746621,42.1297093 Z M98.4467086,31.9072643 L93.0878763,31.9072643 L93.0878763,39.292493 L98.3103907,39.292493 C99.0760519,39.292493 99.7311204,39.1814987 100.275066,38.95951 C100.817951,38.7372565 101.262708,38.4474527 101.609072,38.0893039 C101.954906,37.7319499 102.207916,37.3184364 102.368899,36.8492933 C102.529351,36.38068 102.609709,35.8996163 102.609709,35.4055724 C102.609709,34.418809 102.232581,33.5859542 101.479384,32.907008 C100.925891,32.4087256 100.207703,32.0950805 99.3280013,31.962629 C99.0492657,31.9273969 98.7570043,31.9072643 98.4467086,31.9072643 L98.4467086,31.9072643 Z M76.4067803,31.9073703 L71.9037805,31.9073703 L71.9037805,37.6266245 L79.1477252,37.6266245 C79.3943704,37.3802647 79.6418113,37.0223809 79.888987,36.5532378 C80.1356323,36.0846245 80.2597505,35.4923016 80.2597505,34.776269 C80.2597505,33.9868583 79.9629806,33.3084419 79.3699711,32.7402251 C79.1416253,32.5216802 78.8485684,32.3481688 78.498226,32.2143928 C77.9457937,32.0112122 77.2509436,31.9073703 76.4067803,31.9073703 L76.4067803,31.9073703 Z" id="Fill-43" fill="#FFFFFF"></path>
    </g>
</svg>