<?xml version="1.0" encoding="UTF-8"?>
<svg width="148px" height="80px" viewBox="0 0 148 80" version="1.1" xmlns="http://www.w3.org/2000/svg" xmlns:xlink="http://www.w3.org/1999/xlink">
    <title>logo/logo_mandiri_white</title>
    <g id="logo/logo_mandiri_white" stroke="none" stroke-width="1" fill="none" fill-rule="evenodd">
        <path d="M46.8917762,41.5663401 C51.2957658,41.5663401 52.5665452,44.3760132 52.5665452,47.3797376 L52.5665452,52.3719973 C52.5665452,53.6183071 52.6224405,54.8365342 52.7624582,55.6888438 L49.6298068,55.6888438 L49.4051077,54.1586181 L49.3195879,54.1586181 C48.4722154,55.2372742 47.0331912,56 45.2585159,56 C42.4914197,56 40.9397665,53.9889986 40.9397665,51.8892559 C40.9397665,48.3994201 44.0128894,46.6439712 49.0954478,46.671773 L49.0954478,46.4451457 C49.0954478,45.5375132 48.7270979,44.0342468 46.2998451,44.0342468 C44.9446638,44.0342468 43.5344257,44.4605421 42.6034897,45.0547718 L41.9265978,42.7865329 C42.9424947,42.1616931 44.7202443,41.5663401 46.8917762,41.5663401 Z M82.4555158,36.3322042 L82.4555158,51.8038003 C82.4555158,53.2211336 82.5139264,54.7541676 82.5687038,55.6890404 L79.4667948,55.6890404 L79.3253798,53.5067346 L79.2678076,53.5067346 C78.4495006,55.0372412 76.7841005,55.9999158 74.7819314,55.9999158 C71.507306,55.9999158 68.9134852,53.1933318 68.9134852,48.9421742 C68.8833017,44.3186402 71.7610706,41.5665367 75.0633641,41.5665367 C76.9531838,41.5665367 78.308365,42.3607151 78.9288027,43.3851716 L78.9863748,43.3851716 L78.9863748,36.3322042 L82.4555158,36.3322042 Z M88.411522,41.8794059 L88.411522,55.6890685 L84.9105207,55.6890685 L84.9105207,41.8794059 L88.411522,41.8794059 Z M103.675966,41.8794059 L103.675966,55.6890685 L100.179157,55.6890685 L100.179157,41.8794059 L103.675966,41.8794059 Z M34.7747679,41.5663963 C37.0611646,41.5663963 39.3738321,43.125828 39.3738321,47.5527832 L39.3738321,55.6889 L35.9882546,55.6889 L35.9882546,48.060799 C35.9882546,45.7658816 35.1984542,44.4027479 33.5330541,44.4027479 C32.348074,44.4027479 31.4724743,45.254215 31.1063602,46.2472189 C31.0216789,46.584492 30.9369975,47.0124722 30.9369975,47.4073148 L30.9369975,55.6889 L27.5503021,55.6889 L27.5503021,47.6901075 C27.5503021,45.7658816 26.7895672,44.4027479 25.179224,44.4027479 C23.8835712,44.4027479 23.00881,45.4238345 22.6955169,46.3873516 C22.5554992,46.7271521 22.498486,47.1253646 22.498486,47.5207689 L22.498486,55.6889 L19.1134674,55.6889 L19.1134674,45.9905432 C19.1134674,44.4027479 19.0857993,43.069101 19,41.8792374 L21.9920747,41.8792374 L22.1340487,43.9233764 L22.2173327,43.9233764 C22.8939452,42.8444395 24.1359384,41.5663963 26.4505623,41.5663963 C28.2576569,41.5663963 29.6676155,42.5897295 30.2595466,44.1188319 L30.3173982,44.1188319 C30.7969798,43.3535786 31.3598453,42.7865891 32.0087896,42.390904 C32.7706424,41.852278 33.6479189,41.5663963 34.7747679,41.5663963 Z M62.5268617,41.5663963 C64.9261669,41.5663963 67.4079177,43.125828 67.4079177,47.4949328 L67.4079177,55.6889 L63.9379383,55.6889 L63.9379383,47.8928645 C63.9379383,45.9065759 63.2029152,44.4027479 61.3133751,44.4027479 C59.931923,44.4027479 58.9702446,45.395471 58.6046894,46.4452019 C58.4923399,46.7569198 58.4635538,47.1820917 58.4635538,47.5774959 L58.4635538,55.6889 L54.9642294,55.6889 L54.9642294,45.9905432 C54.9642294,44.4027479 54.9348844,43.069101 54.8535567,41.8792374 L57.8984525,41.8792374 L58.0675357,43.9520207 L58.153335,43.9520207 C58.7452661,42.872803 60.2415829,41.5663963 62.5268617,41.5663963 Z M98.5681707,41.8794621 L98.5681707,44.9432835 C98.2878559,44.8859948 97.978196,44.8295486 97.5545097,44.8295486 C95.8877122,44.8295486 94.7589069,45.9065197 94.449247,47.4639857 C94.3947491,47.7771077 94.3368975,48.1472375 94.3368975,48.5446076 L94.3368975,55.6888438 L90.8644028,55.6888438 L90.8644028,46.3322533 C90.8644028,44.4605421 90.8361757,43.1257718 90.7534507,41.8794621 L93.7729141,41.8794621 L93.8835867,44.5136183 L93.9984515,44.5136183 C94.6759024,42.5599056 96.2826125,41.8794621 97.7532175,41.8794621 C98.0899866,41.8794621 98.2878559,41.8224542 98.5681707,41.8794621 Z M44.3820778,51.5210919 C44.3820778,52.8816982 45.2585159,53.5068188 46.3576967,53.5068188 C47.7383103,53.5068188 48.755884,52.5966589 49.0661028,51.6047783 C49.1496663,51.3486641 49.1790113,51.0672756 49.1790113,50.8403675 L49.1790113,48.9422585 C46.7229724,48.884689 44.3820778,49.4227533 44.3820778,51.5210919 Z M75.9101777,44.2619132 C73.6810737,44.2619132 72.437683,46.2473593 72.437683,48.827316 C72.437683,51.3488607 73.6810737,53.1933318 75.883348,53.1933318 C77.2913503,53.1933318 78.5344614,52.2286914 78.8723485,50.725425 C78.9581477,50.4142688 78.9863748,50.0727833 78.9863748,49.7049001 L78.9863748,47.634925 C78.9863748,47.3529748 78.9581477,47.0123318 78.9002961,46.7272925 C78.5903567,45.3692136 77.4914554,44.2619132 75.9101777,44.2619132 Z M103.859023,24 L104.163906,24.0069453 C105.965585,24.089716 107.273019,24.9019421 108.242331,25.8863143 L108.242331,25.8863143 L108.491925,26.1486898 C108.652944,26.3262764 108.803241,26.5084394 108.942979,26.6906025 L108.942979,26.6906025 L109.169482,26.9929519 C109.460245,27.3959048 109.7069,27.7952632 109.919749,28.1565189 L109.919749,28.1565189 L110.091906,28.458127 L110.147201,28.5484596 C110.187425,28.6093054 110.234067,28.671649 110.285304,28.7369881 L110.285304,28.7369881 L110.363572,28.8301567 C111.156826,29.7347623 113.006948,30.7309339 115.360317,29.755828 L115.360317,29.755828 L115.372328,29.7489862 C115.626115,29.6044389 119.822641,27.2149233 120.419399,26.9189147 L120.419399,26.9189147 L120.553386,26.8521102 C121.993436,26.1364214 123.776402,25.3502753 125.455564,27.2752841 L125.455564,27.2752841 L125.652316,27.5025828 C127.455593,29.5969845 128.333333,30.927157 128.333333,30.927157 L128.333333,30.927157 L119.128218,36.264553 L119.090259,36.2881768 C118.866074,36.4214578 118.000661,36.8599247 117.223866,36.8759131 L117.223866,36.8759131 L116.990617,36.8738985 C115.840059,36.8251997 114.92491,36.203245 114.250236,35.2836246 L114.250236,35.2836246 L114.120735,35.0961155 C114.035443,34.968412 113.952967,34.8354249 113.877694,34.6978197 L113.877694,34.6978197 L113.809204,34.5868898 C112.318299,32.2001845 108.914171,28.5655238 102.151701,32.2936607 L102.151701,32.2936607 L102.142549,32.2968551 L102.135492,32.3006814 L94.4585536,36.7750963 L94.2202491,36.9060818 C93.6041527,37.2384884 93.1293326,37.4339162 92.4650482,37.4473959 L92.4650482,37.4473959 L92.2412224,37.4460158 C90.984621,37.3999526 89.9310354,36.7095856 89.2516281,35.6722891 L89.2516281,35.6722891 L89.0833833,35.396517 L89.0617239,35.3557269 L89.0617239,35.3557269 L89.0383876,35.3136731 L89.0341955,35.3103032 L88.9670163,35.1971651 L88.9670163,35.1971651 L88.8950162,35.0825526 L88.824339,34.9700567 C87.3111008,32.5906659 83.9619078,29.1846656 77.2844472,32.8671092 L77.2844472,32.8671092 L77.2713817,32.8744025 C76.9122039,33.0788685 69.3190893,37.497383 69.3190893,37.497383 L69.3190893,37.497383 L69.060548,37.608591 C66.3325395,38.7127879 64.5556422,37.2252192 63.5970888,36.3072387 L63.5970888,36.3072387 L61.2478099,33.4082626 C61.376668,33.334347 63.3183516,32.2205279 65.788743,30.8016274 L65.788743,30.8016274 L65.7894068,30.8014168 L65.7906993,30.7999424 C65.9458164,30.7107953 68.196468,29.4173386 70.5314149,28.0761144 L71.0150479,27.798319 C72.3849967,27.0114587 73.7360661,26.2356973 74.6615609,25.7049001 L74.6615609,25.7049001 L74.959567,25.5662244 C79.1920853,23.6506413 81.7573532,24.8152277 83.3747977,26.4569545 L83.3747977,26.4569545 L83.6233971,26.720599 C83.7844791,26.8981648 83.9360795,27.0788925 84.0771219,27.2601194 L84.0771219,27.2601194 L84.30474,27.5690394 C84.4501298,27.7731278 84.5833469,27.9735133 84.7076208,28.1702794 L84.7076208,28.1702794 L85.1427656,28.8844222 L85.226888,29.029048 L85.2604601,29.0864771 L85.2604601,29.0864771 L85.3017877,29.1439062 L85.3656243,29.2341951 C86.0652251,30.1759678 87.9962811,31.3636322 90.4933419,30.3298382 L90.4933419,30.3298382 C90.6526476,30.2383781 92.8836176,28.9574821 95.1532349,27.6511064 L95.6394292,27.3712046 C97.1762064,26.4863114 98.6636455,25.628122 99.4639766,25.1617809 C101.179682,24.3333415 102.629606,24 103.859023,24 L103.859023,24 Z" id="Fill-16" fill="#FFFFFF"></path>
    </g>
</svg>