<?xml version="1.0" encoding="UTF-8"?>
<svg width="296px" height="80px" viewBox="0 0 296 80" version="1.1" xmlns="http://www.w3.org/2000/svg" xmlns:xlink="http://www.w3.org/1999/xlink">
    <title>logo/logo_vm_white</title>
    <g id="logo/logo_vm_white" stroke="none" stroke-width="1" fill="none" fill-rule="evenodd">
        <g id="Group-2" fill="#FFFFFF">
            <g id="logo" transform="translate(33.000000, 27.000000)">
                <polygon id="polygon9" points="35.3272102 25.5245563 28.7534919 25.5245563 32.8651663 0.764913495 39.4385252 0.764913495"></polygon>
                <path d="M59.1575233,1.37021611 C57.8608972,0.869239799 55.804341,0.316100334 53.2614153,0.316100334 C46.7696572,0.316100334 42.1982143,3.68745037 42.1701753,8.50746566 C42.1162541,12.0636623 45.4431947,14.0388603 47.9314803,15.2246093 C50.4747655,16.4362648 51.3393027,17.2271142 51.3393027,18.3071365 C51.3134205,19.9658547 49.2841845,20.7304475 47.3915489,20.7304475 C44.7670223,20.7304475 43.3607563,20.3362481 41.2236778,19.4134154 L40.3580621,19.0178157 L39.4381657,24.575817 C40.9799537,25.2598895 43.8205248,25.8669426 46.7696572,25.8935493 C53.6672625,25.8935493 58.1578235,22.5743624 58.2110258,17.4378673 C58.2372675,14.6193067 56.4805134,12.4596121 52.6930854,10.6948172 C50.3938836,9.56193153 48.9858203,8.79803892 48.9858203,7.63889666 C49.0127809,6.58513097 50.1767608,5.50580884 52.7721699,5.50580884 C54.9092484,5.45294551 56.479435,5.95322165 57.6689376,6.45384787 L58.2635091,6.71676416 L59.1575233,1.37021611 L59.1575233,1.37021611 L59.1575233,1.37021611 Z" id="path11"></path>
                <path d="M67.8945619,16.7530947 C68.4359312,15.330686 70.5190885,9.82554799 70.5190885,9.82554799 C70.4917684,9.87841132 71.0593793,8.37688273 71.3839852,7.45510032 L71.8433942,9.58853823 C71.8433942,9.58853823 73.0882559,15.5151825 73.3585811,16.7530947 C72.3312017,16.7530947 69.1929854,16.7530947 67.8945619,16.7530947 L67.8945619,16.7530947 Z M76.0089898,0.764913495 L70.9242167,0.764913495 C69.356187,0.764913495 68.1648871,1.2123263 67.4883552,2.81923146 L57.7239373,25.5242062 L64.6215425,25.5242062 C64.6215425,25.5242062 65.7571239,22.4682857 66.0012074,21.8101197 C66.7579021,21.8101197 73.4678615,21.8101197 74.4413196,21.8101197 C74.630044,22.6793889 75.2256939,25.5242062 75.2256939,25.5242062 L81.3123237,25.5242062 L76.0089898,0.764913495 L76.0089898,0.764913495 L76.0089898,0.764913495 Z" id="path13" fill-rule="nonzero"></path>
                <path d="M23.2628716,0.764913495 L16.8250348,17.6486205 L16.1215423,14.2244071 C14.9313207,10.2733109 11.1985329,5.98052853 7.03293724,3.84604035 L12.9297642,25.4982996 L19.8812908,25.4982996 L30.2140386,0.764913495 L23.2628716,0.764913495 L23.2628716,0.764913495 L23.2628716,0.764913495 Z" id="path15"></path>
                <path d="M10.8469664,0.764913495 L0.270494557,0.764913495 L0.162292598,1.26518963 C8.41260208,3.31985768 13.8766213,8.27255643 16.1215423,14.2254574 L13.8223405,2.84618826 C13.4438134,1.26483954 12.2805525,0.817076647 10.8469664,0.764913495 L10.8469664,0.764913495 Z" id="path17"></path>
            </g>
            <g id="Group" transform="translate(182.000000, 21.000000)">
                <path d="M23.6817384,18.9973612 C23.6771065,13.1681477 26.3757149,7.66054411 31,4.06148394 C23.1440672,-2.06061508 11.8626327,-1.16887842 5.08398545,6.11000537 C-1.69466182,13.3888892 -1.69466182,24.6111108 5.08398545,31.8899946 C11.8626327,39.1688784 23.1440672,40.0606151 31,33.9385161 C26.3742433,30.338313 23.6754701,24.8284267 23.6817384,18.9973612 Z" id="Path"></path>
                <path d="M62,19.0026386 C62,26.2762992 57.8113656,32.9113697 51.2134663,36.0899099 C44.6155671,39.2684502 36.76658,38.4324258 31,33.9368994 C35.6218473,30.3351735 38.3204136,24.8288982 38.3204136,19 C38.3204136,13.1711018 35.6218473,7.66482649 31,4.06310064 C36.76658,-0.432425762 44.6155671,-1.26845022 51.2134663,1.91009006 C57.8113656,5.08863034 62,11.7237008 62,18.9973614 L62,19.0026386 Z" id="Path"></path>
            </g>
        </g>
    </g>
</svg>